<svg width="24" height="22" viewBox="0 0 24 22" fill="none" xmlns="http://www.w3.org/2000/svg">
<path d="M14.4188 20.1208C13.335 21.029 11.935 21.4698 10.5263 21.3465C9.11765 21.2231 7.81556 20.5457 6.90607 19.4629L3.78766 15.7517C3.6281 15.5502 3.55338 15.2945 3.57938 15.0388C3.60538 14.7831 3.73005 14.5476 3.92691 14.3824C4.12376 14.2171 4.37728 14.1352 4.63361 14.1539C4.88994 14.1726 5.12888 14.2905 5.29965 14.4826L8.41868 18.1938C8.99185 18.8749 9.81167 19.301 10.6985 19.3788C11.5853 19.4565 12.4668 19.1795 13.1497 18.6085L21.6209 11.4981L20.7914 10.5107C20.6227 10.3102 20.5406 10.0508 20.5631 9.78977C20.5855 9.5287 20.7108 9.28725 20.9113 9.11854C21.0106 9.035 21.1253 8.97184 21.249 8.93266C21.3727 8.89347 21.5029 8.87903 21.6322 8.89016C21.8933 8.91265 22.1347 9.03792 22.3034 9.23842L23.7691 10.9849C23.9374 11.1855 24.0191 11.4447 23.9963 11.7055C23.9735 11.9662 23.848 12.2073 23.6476 12.3757L14.4188 20.1208Z" fill="white"/>
<path opacity="0.5" d="M17.4653 3.46939L15.6892 1.35321C15.6058 1.25372 15.5037 1.17164 15.3885 1.11168C15.2734 1.05171 15.1476 1.01504 15.0183 1.00374C14.889 0.992451 14.7587 1.00677 14.6349 1.04587C14.5111 1.08498 14.3963 1.1481 14.2969 1.23164L11.696 3.41446L11.3001 2.94482C10.8574 2.42093 10.2252 2.09384 9.54186 2.03519C8.85852 1.97655 8.17979 2.19113 7.65434 2.63193L0.918251 8.28895C0.394637 8.73177 0.0678406 9.36404 0.0094273 10.0473C-0.048986 10.7306 0.165745 11.4091 0.606595 11.9344L1.6184 13.1631C1.70161 13.2626 1.80364 13.3447 1.91863 13.4046C2.03363 13.4646 2.15933 13.5013 2.28852 13.5126C2.41772 13.5239 2.54788 13.5096 2.67154 13.4705C2.79519 13.4314 2.90991 13.3682 3.00912 13.2847L4.12862 12.3491L12.2076 5.56335L14.8085 3.38021L15.928 4.71509L13.2679 6.95099C12.9996 7.16693 12.7771 7.43424 12.6134 7.73726C12.4498 8.04028 12.3482 8.37292 12.3147 8.71568C12.2813 9.05844 12.3165 9.40444 12.4185 9.7334C12.5204 10.0624 12.687 10.3677 12.9084 10.6314C13.1298 10.8952 13.4017 11.1121 13.708 11.2695C14.0143 11.4269 14.349 11.5215 14.6924 11.5479C15.0358 11.5743 15.381 11.5319 15.7077 11.4232C16.0345 11.3145 16.3363 11.1417 16.5955 10.9149L20.4687 7.66595C20.9667 7.24646 21.2884 6.65465 21.3695 6.00852C21.4506 5.36239 21.2851 4.70943 20.9062 4.17988C20.5272 3.65032 19.9625 3.28308 19.3248 3.15139C18.687 3.01971 18.0231 3.13325 17.4653 3.46939V3.46939ZM2.85823 10.8306L2.49319 11.1423L2.10038 10.6683C1.99625 10.5437 1.94483 10.3834 1.95705 10.2215C1.96926 10.0596 2.04416 9.90882 2.1658 9.80125L8.92349 4.13806C9.04909 4.03601 9.20944 3.98679 9.37066 4.00078C9.53188 4.01477 9.68135 4.09088 9.78749 4.21304L10.1837 4.68392L2.85823 10.8306ZM19.1964 6.15395L15.3229 9.40227C15.1966 9.47074 15.0505 9.49349 14.9094 9.46667C14.7682 9.43986 14.6407 9.36514 14.5483 9.25513C14.4559 9.14512 14.4043 9.00657 14.4022 8.86291C14.4002 8.71925 14.4478 8.57929 14.537 8.46669L18.4105 5.21405C18.4679 5.14154 18.5408 5.08273 18.6238 5.04187C18.7068 5.00101 18.7978 4.97913 18.8903 4.97781C18.9828 4.97649 19.0745 4.99576 19.1586 5.03424C19.2427 5.07271 19.3172 5.12942 19.3767 5.20025C19.4362 5.27108 19.4792 5.35426 19.5026 5.44377C19.526 5.53327 19.5292 5.62686 19.5119 5.71774C19.4947 5.80862 19.4574 5.89453 19.4028 5.96923C19.3483 6.04392 19.2777 6.10555 19.1964 6.14963V6.15395Z" fill="white"/>
</svg>
