<svg xmlns="http://www.w3.org/2000/svg" xmlns:xlink="http://www.w3.org/1999/xlink" viewBox="0 0 300 66">
  <defs>
    <style>
      .cls-1 {
        clip-path: url(#clip-Artboard_1);
      }

      .cls-2, .cls-3 {
        fill: #fff;
      }

      .cls-3 {
        opacity: 0.5;
      }
    </style>
    <clipPath id="clip-Artboard_1">
      <rect width="300" height="66"/>
    </clipPath>
  </defs>
  <g id="Artboard_1" data-name="Artboard – 1" class="cls-1">
    <g id="full_horizontal_bluegray" transform="translate(-0.054 -0.002)">
      <path id="Path_22207" data-name="Path 22207" class="cls-2" d="M90.567,43.164h0a2.8,2.8,0,0,1,3.952-.354,7.438,7.438,0,0,0,4.871,1.819c3.517,0,5.316-2.092,5.316-6.3V20.646H99.39a2.658,2.658,0,0,1-2.658-2.618h0a2.668,2.668,0,0,1,2.658-2.668H108.3a2.759,2.759,0,0,1,2.759,2.759V38.03c0,8.085-4.043,12.017-11.532,12.017a13.533,13.533,0,0,1-8.52-2.9,2.81,2.81,0,0,1-.445-3.982Zm62.66-16.17-6.064,19.728a4.043,4.043,0,0,1-3.851,2.85h0a4.043,4.043,0,0,1-3.79-2.789l-5.164-15.241L129.093,46.8a4.043,4.043,0,0,1-3.8,2.719h0a4.043,4.043,0,0,1-3.851-2.85l-6.064-19.728a2.719,2.719,0,0,1,2.6-3.507h.323a2.729,2.729,0,0,1,2.628,2.021l4.447,16.585,5.306-15.928a4.043,4.043,0,0,1,3.79-2.678h0a3.982,3.982,0,0,1,3.79,2.759l5.174,15.938,4.609-16.706a2.719,2.719,0,0,1,2.618-2.021h0a2.709,2.709,0,0,1,2.587,3.537Zm26.722,7.721V45.448a3.184,3.184,0,0,1-2.021,3.032c-10.945,4.174-21.658,1.284-21.658-6.4,0-8.287,10.369-8.681,17.585-7.448v-.707c0-3.568-2.153-5.67-6.5-5.67a13.947,13.947,0,0,0-5.9,1.324,2.486,2.486,0,0,1-3.275-1.091h0a2.506,2.506,0,0,1,1.122-3.467,20.678,20.678,0,0,1,9.328-1.839A11.582,11.582,0,0,1,179.948,34.715Zm-6.064,10.106V38.686S162,36.453,162,42.032c-.071,4.447,7.1,4.376,11.814,2.81ZM188.347,15.3h0a3.032,3.032,0,0,1,3.032,3.032v28.1a3.032,3.032,0,0,1-3.032,3.032h0a3.032,3.032,0,0,1-3.032-3.032V18.372a3.032,3.032,0,0,1,2.961-3.052Zm11.339,0h0a3.032,3.032,0,0,1,3.032,3.032v28.1a3.032,3.032,0,0,1-3.032,3.032h0a3.032,3.032,0,0,1-3.032-3.032V18.372a3.032,3.032,0,0,1,2.961-3.052Zm31.158,23.114H213.361c.738,3.81,3.911,6.246,8.449,6.246a9.743,9.743,0,0,0,5.4-1.445,2.557,2.557,0,0,1,3.315.485h0a2.6,2.6,0,0,1-.505,3.84,14.6,14.6,0,0,1-8.348,2.3c-8.54,0-14.149-5.356-14.4-12.845a13.5,13.5,0,0,1,12.128-13.745c9.035-1.011,13.967,5.8,14,12.532a2.587,2.587,0,0,1-2.618,2.648Zm-17.464-4.043h14.806a7.075,7.075,0,0,0-7.378-6.347,7.206,7.206,0,0,0-7.509,6.347ZM251.6,46.115a2.436,2.436,0,0,0-2.931-1.455,6.569,6.569,0,0,1-1.486.172c-2.345,0-3.618-1.374-3.618-3.911v-12.6h4.548a2.446,2.446,0,0,0,2.446-2.446h0a2.446,2.446,0,0,0-2.446-2.436h-4.5V18.382a3.032,3.032,0,0,0-3.032-3.032h0a3.032,3.032,0,0,0-3.032,3.032V41.072c0,5.761,3.275,8.793,8.995,8.793a11.511,11.511,0,0,0,3.568-.556,2.426,2.426,0,0,0,1.506-3.194Z" transform="translate(0.957 0.163)"/>
      <path id="Path_22208" data-name="Path 22208" class="cls-2" d="M46.66,61.694a17.292,17.292,0,0,1-24.347-2.132L12.207,47.535a3.2,3.2,0,0,1,4.9-4.113L27.215,55.449a10.9,10.9,0,0,0,15.332,1.344L70,33.75l-2.688-3.2a3.2,3.2,0,1,1,4.9-4.123l4.75,5.66a3.2,3.2,0,0,1-.394,4.507Z" transform="translate(0.123 0.269)"/>
      <path id="Path_22209" data-name="Path 22209" class="cls-3" d="M56.656,8,50.9,1.142A3.2,3.2,0,0,0,46.388.748L37.959,7.822,36.676,6.3A8.4,8.4,0,0,0,24.861,5.286L3.031,23.619A8.4,8.4,0,0,0,2.021,35.433L5.3,39.415a3.194,3.194,0,0,0,4.507.394l3.628-3.032L39.617,14.786l8.429-7.075,3.628,4.326-8.621,7.246A8.388,8.388,0,1,0,53.837,32.129L66.389,21.6A8.388,8.388,0,0,0,56.656,8ZM9.318,31.856,8.135,32.866,6.862,31.33a2.021,2.021,0,0,1,.212-2.81l21.9-18.353a2.021,2.021,0,0,1,2.8.243l1.284,1.526ZM62.266,16.7,49.713,27.227a2.021,2.021,0,0,1-2.547-3.032L59.719,13.654a2.021,2.021,0,1,1,2.547,3.032Z" transform="translate(0 0)"/>
    </g>
  </g>
</svg>
